# xmcd CD database file
#
# Track frame offsets:
#	150
#	14722
#	28662
#	45532
#	60970
#	73780
#	86020
#	100693
#	116770
#	131578
#	142615
#	153843
#	165900
#	178463
#	188000
#	206465
#	219653
#	233300
#	245910
#	262333
#
# Disc length: 3685 seconds
#
# Revision: 0
# Processed by: cddbd v1.5.2PL0 Copyright (c) Steve Scherf et al.
# Submitted via: CDex 1.81
#
DISCID=150e6314
DTITLE=The Glenn Miller Orchestra - The Glenn Miller Orchestra [Disc 2]
DYEAR=0
DGENRE=Jazz
TTITLE0=Rhapsody In Blue
TTITLE1=When You Wish Upon A Star
TTITLE2=Stardust
TTITLE3=Skylark
TTITLE4=Johnson Rag
TTITLE5=The Story Of A Starry Night
TTITLE6=Bugle Call Rag
TTITLE7=Sunrise Serenade
TTITLE8=Moonlight Cocktail
TTITLE9=Sun Valley Jump
TTITLE10=Caribbean Clipper
TTITLE11=Magic Moments
TTITLE12=Elmers Tune
TTITLE13=Now Is The Hour
TTITLE14=Body And Soul
TTITLE15=Santa Fe Trail
TTITLE16=At Last
TTITLE17=Running Wild
TTITLE18=Dream
TTITLE19=Adios
EXTD=YEAR: 0
EXTT0=
EXTT1=
EXTT2=
EXTT3=
EXTT4=
EXTT5=
EXTT6=
EXTT7=
EXTT8=
EXTT9=
EXTT10=
EXTT11=
EXTT12=
EXTT13=
EXTT14=
EXTT15=
EXTT16=
EXTT17=
EXTT18=
EXTT19=
PLAYORDER=
